<svg viewBox="0 0 46 47" style="width: 27px; margin-right: 10px">
    <path fill="#030041" fill-rule="evenodd" d="M45.808444 16.9530601c.387294-.7098356.1691141-1.5936789-.4903325-1.9779725L27.1342654 4.4139149l-.9237486-.5454594-.0068692.00449466-.0088319-.00577885 2.1320797-1.21901668c.6614092-.38012003.8429532-1.23924266.4095372-1.92082612-.433416-.6777309-1.318566-.92718466-1.9819378-.55380663L7.53666523 10.9815799V8.59427206c0-.80133411-.65813813-1.45306017-1.46739942-1.45306017-.81024262 0-1.46772653.65172606-1.46772653 1.45306017V30.5661086l-.00196264.0664568-2.26815595-1.2947838c-.74547554-.4311666-1.69964498-.1730445-2.12553755.5766009-.42850941.7496455-.16649717 1.7034771.5851934 2.1262965L20.1204494 42.8943257l-2.1477808 1.2312165c-.7415503.4247456-.9914596 1.3676616-.5511743 2.1057494.4389768.7377667 1.4009968.9897889 2.1435284.556375l19.065398-11.1133741v2.6486404c0 .800692.6568297 1.451455 1.4670723 1.451455.8099155 0 1.4670723-.650763 1.4670723-1.451455V16.2811081l.0013084-.0577886-.0013084-.000642v-.0025684l2.3388109 1.3358779c.6659887.3781937 1.5177738.1078719 1.9050678-.6029269zm-7.1780233 15.3332201c-.0006543.000321-.0013085.000321-.0019627.000642v-.0051367l-.5851934.339026-14.9539973 8.5719634c-.0065421-.0035315-.0114487-.0089893-.0179909-.0128419l-.2535074-.1451134-.6479979-.3820463-.0111216.0057789-14.62492823-8.351725c0-.0028894.00098132-.0060999.00098132-.0093104l.00261685.0012842.00065421-1.0671613-.00130842-.0009631V14.5352527c.01275715-.0077051.02714983-.0109156.03990698-.0182997L23.0735662 5.65251546c.0042524.00224733.0075234.00642095.0114487.00866828l-.0022897.00128419.2100023.11718227 15.3363847 8.7629866-.0003271 1.0434038.0016356.0009632v16.6992764zm-19.2737648-4.7322376l9.4831423-4.6933907-9.4831423-4.6933908v9.3867815z"></path>
</svg>