<svg viewBox="0 0 443 512" version="1.1" xmlns="http://www.w3.org/2000/svg" xmlns:xlink="http://www.w3.org/1999/xlink" style="width: 27px; margin-right: 10px">
    <!-- Generator: Sketch 54.1 (76490) - https://sketchapp.com -->
    <title>Unified Origin</title>
    <desc>Created with Sketch.</desc>
    <g id="Unified-Origin" stroke="none" stroke-width="1" fill="none" fill-rule="evenodd">
        <polygon id="hexagon" fill="#DF104C" points="221.5 0 443 128 443 384 221.5 512 1.36299595e-13 384 0 128"></polygon>
        <g id="Icon" transform="translate(122.000000, 143.000000)" fill="#FFFFFF" fill-rule="nonzero">
            <path d="M96.7531845,227.345345 C95.9038443,225.869168 96.4105763,223.984425 97.8815351,223.134442 L192.677339,168.361912 L192.677339,58.804531 C192.677339,57.1045664 194.055978,55.7269381 195.75671,55.7269381 C197.455391,55.7269381 198.831978,57.1045664 198.831978,58.804531 L198.831978,170.141947 C198.831978,171.240354 198.245236,172.256637 197.293319,172.810973 L100.958855,228.474549 C100.47469,228.755823 99.9474423,228.887221 99.4263495,228.887221 C98.3615969,228.887221 97.325566,228.332885 96.7531845,227.345345" id="Fill-1"></path>
            <path d="M6.17269278,131.242733 L96.3422598,183.346237 L96.3422598,153.356644 L6.16038351,101.249034 L6.17269278,131.242733 Z M99.4195794,188.682237 L100.960291,186.015264 L99.4195794,188.682237 Z M97.8829711,191.349211 L1.55876495,135.687688 C0.606847423,135.135405 0.0201051546,134.119122 0.0201051546,133.018662 L0.00369278351,95.9171398 C0.00369278351,94.8166796 0.588383505,93.8024496 1.54235258,93.2501664 C2.4942701,92.7019894 3.66570309,92.6978832 4.61967216,93.2501664 L100.960291,148.911688 C101.910157,149.459865 102.501002,150.478202 102.501002,151.578662 L102.501002,188.682237 C102.501002,189.782697 101.910157,190.803087 100.960291,191.349211 C100.48228,191.624326 99.9509299,191.761883 99.4195794,191.761883 C98.8882289,191.761883 98.3589299,191.624326 97.8829711,191.349211 L97.8829711,191.349211 Z" id="Fill-3"></path>
            <path d="M96.7542103,116.023122 C95.9028186,114.551051 96.4095505,112.666308 97.8825608,111.814273 L189.596942,58.801246 L99.4212206,6.6895292 L4.61926186,61.4723257 L4.61926186,61.4764319 C3.1442,62.3243611 1.26293196,61.8213522 0.413591753,60.3451752 C-0.4378,58.8689982 0.0689319588,56.986308 1.54194227,56.1363257 L97.8825608,0.468644248 C98.8344784,-0.0856920354 100.005911,-0.0856920354 100.95988,0.468644248 L197.296396,56.1363257 C198.246262,56.6886088 198.835056,57.7069451 198.835056,58.8074053 C198.835056,59.9058124 198.246262,60.9200425 197.296396,61.4723257 L100.95988,117.152326 C100.473664,117.4336 99.9443649,117.567051 99.4232722,117.567051 C98.3585196,117.567051 97.3224887,117.010662 96.7542103,116.023122" id="Fill-5"></path>
            <path d="M97.8842021,228.466131 L1.53948041,172.802556 C0.587562887,172.248219 0.00492371134,171.231936 0.00492371134,170.133529 L0.00492371134,133.019688 C0.00492371134,131.315618 1.38151134,129.937989 3.08019175,129.937989 C4.77887216,129.937989 6.15956289,131.315618 6.15956289,133.019688 L6.15956289,168.3576 L96.3455423,220.461104 L96.3455423,188.685317 C96.3455423,186.981246 97.7200784,185.603618 99.4208103,185.603618 C101.121542,185.603618 102.49813,186.981246 102.49813,188.685317 L102.49813,225.795051 C102.49813,226.893458 101.911388,227.909742 100.95947,228.466131 C100.483511,228.741246 99.9521608,228.87675 99.4228619,228.87675 C98.8915113,228.87675 98.3601608,228.741246 97.8842021,228.466131" id="Fill-8"></path>
            <path d="M79.3410948,158.269912 C79.3410948,155.695327 81.1382495,154.794018 83.3436619,156.212708 C85.5675381,157.61292 87.3646928,160.832177 87.3646928,163.41908 C87.3646928,165.973133 85.5675381,166.89908 83.3436619,165.480389 C81.1382495,164.067858 79.3410948,160.832177 79.3410948,158.269912" id="Fill-10"></path>
            <path d="M79.3410948,195.38211 C79.3410948,192.811632 81.1444041,191.893897 83.3436619,193.304375 C85.5675381,194.721012 87.3646928,197.948481 87.3646928,200.510747 C87.3646928,203.081225 85.5675381,203.994853 83.3436619,202.588481 C81.1444041,201.167738 79.3410948,197.936163 79.3410948,195.38211" id="Fill-12"></path>
            <path d="M96.3445165,151.581331 L96.3445165,116.259844 L6.15853711,64.1419681 L6.17494948,95.9300743 C6.17494948,97.6300389 4.79631031,99.0117735 3.09968144,99.0117735 C1.39689794,99.0117735 0.0223618557,97.6300389 0.0223618557,95.9300743 L0.00594948454,58.8059681 C0.00594948454,57.705508 0.590640206,56.6892248 1.54255773,56.1389947 C2.49447526,55.5867115 3.6638567,55.5867115 4.62192887,56.1389947 L100.960496,111.816942 C101.912413,112.363065 102.497104,113.385508 102.497104,114.483915 L102.497104,151.581331 L102.501207,151.581331 C102.501207,153.281296 101.122568,154.660977 99.4218361,154.660977 C97.7190526,154.660977 96.3445165,153.281296 96.3445165,151.581331" id="Fill-14"></path>
            <path d="M79.3410948,121.173727 C79.3410948,118.607356 81.1382495,117.693727 83.3436619,119.100099 C85.5675381,120.51263 87.3646928,123.731887 87.3646928,126.318789 C87.3646928,128.868736 85.5675381,129.794683 83.3436619,128.388312 C81.1382495,126.95525 79.3410948,123.731887 79.3410948,121.173727" id="Fill-16"></path>
            <path d="M96.7542103,153.121154 C95.9089732,151.644977 96.4116021,149.760234 97.8805093,148.910251 L194.214973,93.2487292 C195.687984,92.3987469 197.571303,92.9038088 198.420643,94.3779327 C199.269984,95.8500035 198.765303,97.7347469 197.292293,98.5867823 L100.95988,154.248304 C100.475715,154.529579 99.9464165,154.660977 99.4253237,154.660977 C98.3605711,154.660977 97.3245402,154.106641 96.7542103,153.121154" id="Fill-18"></path>
            <path d="M96.7542103,190.223292 C95.9069216,188.751221 96.407499,186.866478 97.8805093,186.014442 L194.217025,130.338549 C195.685932,129.486513 197.569252,129.991575 198.420643,131.465699 C199.272035,132.93777 198.767355,134.822513 197.294344,135.674549 L100.961932,191.350442 C100.475715,191.631717 99.9464165,191.765168 99.4232722,191.765168 C98.3605711,191.765168 97.3245402,191.210832 96.7542103,190.223292" id="Fill-20"></path>
        </g>
    </g>
</svg>