<svg viewBox="0 0 443 512" version="1.1" xmlns="http://www.w3.org/2000/svg" xmlns:xlink="http://www.w3.org/1999/xlink">
    <!-- Generator: Sketch 54.1 (76490) - https://sketchapp.com -->
    <title>Unified Remix</title>
    <desc>Created with Sketch.</desc>
    <g id="Unified-Remix" stroke="none" stroke-width="1" fill="none" fill-rule="evenodd">
        <g id="Group">
            <polygon id="hexagon" fill="#FBBC31" points="221.5 0 443 128 443 384 221.5 512 1.36299595e-13 384 0 128"></polygon>
            <g id="Icon" transform="translate(120.000000, 159.000000)" fill="#FFFFFF" fill-rule="nonzero">
                <path d="M98.6555394,193.889651 C97.8086808,192.41664 98.3110545,190.531269 99.7833172,189.68398 L196.493337,133.820372 L196.493337,97.7398258 L196.497438,97.7398258 C196.497438,96.0349907 197.873327,94.6584031 199.571145,94.6584031 C201.268964,94.6584031 202.644853,96.0349907 202.644853,97.7398258 L202.644853,135.599063 C202.644853,136.700743 202.058408,137.716259 201.106974,138.266073 L102.859075,195.013898 C102.373105,195.29496 101.844075,195.42831 101.323246,195.42831 C100.261085,195.42831 99.2255798,194.874393 98.6555394,193.889651" id="Fill-1"></path>
                <path d="M99.7829071,195.005487 L1.53705859,138.251507 C0.585624242,137.701693 0.00123030303,136.688229 0.00123030303,135.586548 L0.00123030303,97.7396206 C0.00123030303,96.0368371 1.3791697,94.6602495 3.07493737,94.6602495 C4.77685657,94.6602495 6.15274545,96.0368371 6.15274545,97.7396206 L6.15274545,133.809909 L98.2450283,187.008559 L98.2450283,154.501806 C98.2450283,152.799023 99.6209172,151.422435 101.320786,151.422435 C103.018604,151.422435 104.394493,152.799023 104.394493,154.501806 L104.394493,192.340528 C104.394493,193.440157 103.810099,194.453621 102.856614,195.005487 C102.380897,195.280394 101.849816,195.417847 101.320786,195.417847 C100.789705,195.417847 100.258624,195.280394 99.7829071,195.005487" id="Fill-4"></path>
                <path d="M98.6565646,156.040056 C97.8097061,154.567045 98.3141303,152.685777 99.7802414,151.834386 L198.032241,95.0722 C199.504504,94.2249113 201.382767,94.7275402 202.235777,96.1964474 C203.082635,97.6694577 202.578211,99.5527773 201.110049,100.400066 L102.8601,157.164303 C102.37413,157.443313 101.847151,157.576664 101.324272,157.576664 C100.26211,157.576664 99.2286556,157.024798 98.6565646,156.040056" id="Fill-6"></path>
                <path d="M0.414407071,61.4336093 C-0.436552525,59.9647021 0.0699222222,58.083434 1.53603333,57.2320423 L99.7798313,0.465753608 C101.254144,-0.385638144 103.134458,0.119042268 103.983367,1.59205258 C104.834326,3.06301134 104.329902,4.94633093 102.857639,5.79567113 L4.61384141,62.5599082 C4.12992222,62.8409701 3.60089192,62.9722691 3.08006364,62.9722691 C2.01790202,62.9722691 0.98239697,62.4204031 0.414407071,61.4336093" id="Fill-9"></path>
                <path d="M0,97.7363381 L0,59.8976165 C0,58.1968845 1.3799899,56.8202969 3.07985859,56.8202969 C4.77562626,56.8202969 6.15356566,58.1968845 6.15356566,59.8976165 L6.15356566,97.7363381 C6.15356566,99.4370701 4.77562626,100.813658 3.07985859,100.813658 C1.3799899,100.813658 0,99.4370701 0,97.7363381" id="Fill-12"></path>
                <path d="M99.1862101,156.716245 L0.942412121,62.1153381 C-0.279688889,60.9336474 -0.31659798,58.9846784 0.858341414,57.7640082 C2.03943232,56.5371835 3.98536162,56.4982041 5.20746263,57.6798948 L103.453311,152.280802 C104.677463,153.462493 104.716422,155.405307 103.535331,156.632132 C102.932483,157.261957 102.128685,157.575843 101.322836,157.575843 C100.553897,157.575843 99.7849576,157.290678 99.1862101,156.716245" id="Fill-14"></path>
                <path d="M121.371239,100.82371 C122.687664,100.82371 123.827744,100.530339 124.604886,100.078999 C125.790078,99.3322361 126.077148,98.6593289 126.120209,97.713566 C126.12431,96.8047309 125.648593,95.4589165 124.211189,94.0782258 C122.341128,92.2523495 119.417108,91.1547722 116.964704,91.1711845 C115.656482,91.1711845 114.526654,91.4666072 113.698249,91.9528237 C112.541765,92.6708649 112.262896,93.3232567 112.215734,94.2751742 C112.207532,95.194267 112.691452,96.5482876 114.116553,97.9187206 L111.990179,100.142597 L114.124755,97.9228237 C115.982512,99.7466485 118.906532,100.844226 121.371239,100.82371 M109.859704,102.36237 C107.483169,100.085154 106.072421,97.2335041 106.064219,94.2751742 C106.021159,91.2163186 107.768189,88.2087515 110.620441,86.6249577 C112.570472,85.4904526 114.768613,85.0185969 116.964704,85.0185969 C121.069815,85.0411639 125.289755,86.6167515 128.472138,89.6366278 C130.848674,91.9138443 132.263522,94.7593392 132.267623,97.713566 C132.308633,100.784731 130.559553,103.773834 127.690896,105.402762 C125.749068,106.5147 123.555027,106.976298 121.371239,106.978349 C117.270229,106.957834 113.042088,105.392504 109.859704,102.36237" id="Fill-16"></path>
                <path d="M107.856771,54.6388876 C108.113084,54.6347845 108.191003,54.5937536 108.270973,54.5486196 C108.34069,54.5260526 108.875872,54.0500938 108.888175,52.3062794 C108.888175,52.1975474 108.884074,52.0600938 108.884074,51.9554649 C108.804104,50.0311144 107.977751,47.5384856 106.698235,45.3802588 C105.392064,43.1933103 103.610175,41.3387124 102.029235,40.4421866 C101.122912,39.9149392 100.450346,39.7815887 100.118165,39.7856918 C99.8557,39.7897948 99.7880333,39.8369804 99.7306192,39.8698052 C99.6383465,39.9026299 99.1072657,40.3908979 99.0908616,42.1449701 C99.0908616,42.2701144 99.0949626,42.3706402 99.1031646,42.4834753 C99.1708313,44.4037227 99.9992354,46.8922485 101.303357,49.0545784 C102.595175,51.2292175 104.372963,53.0899701 105.935447,53.990599 L105.937498,53.9885474 C106.843821,54.5096402 107.518437,54.6429907 107.856771,54.6388876 L107.856771,54.6388876 Z M107.856771,60.7935268 C106.146649,60.7894237 104.48574,60.2457639 102.880195,59.3266711 L104.409872,56.6596608 L102.86174,59.3184649 C100.066902,57.6731247 97.7805889,55.1148464 96.0233061,52.2180629 C94.3049828,49.3130732 93.1115889,46.0511144 92.957801,42.7871041 C92.945498,42.5429701 92.941397,42.3255062 92.941397,42.1449701 C92.9290939,39.1763825 93.9297404,36.3124237 96.3821444,34.7019598 C97.4976192,33.9757124 98.824296,33.6248979 100.118165,33.629001 C101.836488,33.6331041 103.505599,34.1890732 105.107043,35.1143206 C107.912134,36.7555577 110.206649,39.309733 111.980336,42.2290835 C113.674054,45.1299701 114.863346,48.377568 115.029437,51.7215887 C115.033538,51.8959701 115.037639,52.0929186 115.037639,52.3062794 C115.049942,55.2605062 114.053397,58.128568 111.566134,59.7451866 C110.485518,60.4345062 109.187548,60.7935268 107.901882,60.7935268 L107.856771,60.7935268 Z" id="Fill-18"></path>
                <path d="M107.258023,58.6808443 C106.409114,57.2119371 106.911488,55.3306691 108.383751,54.4813289 L148.12869,31.514267 C148.29273,31.3727103 148.686427,30.8352052 148.700781,29.3437309 C148.700781,29.2144835 148.69668,29.081133 148.692579,28.9334216 C148.624912,27.0254835 147.800609,24.5349062 146.500589,22.3643701 C145.208771,20.1835763 143.426882,18.3228237 141.845942,17.430401 C140.951922,16.9072567 140.285508,16.7780093 139.943074,16.7780093 C139.680609,16.7862155 139.600639,16.833401 139.411993,16.9400814 L99.5952859,39.9522773 C98.1271242,40.8016175 96.2468111,40.2948856 95.397902,38.8259784 C94.5428414,37.352968 95.0493162,35.4696485 96.5215788,34.6203082 L136.221407,11.681968 C137.324579,10.9700814 138.643054,10.6233701 139.943074,10.6274732 C141.653195,10.6315763 143.326407,11.1793392 144.925801,12.1045866 C147.739094,13.7396691 150.031559,16.3041021 151.786791,19.2131948 C153.494862,22.1222876 154.686205,25.3780918 154.837942,28.6708237 C154.846144,28.8964938 154.852296,29.1221639 154.852296,29.3437309 C154.870751,32.2856485 153.845498,35.1270402 151.415649,36.7210918 L151.286468,36.8011021 L111.461559,59.8112464 C110.977639,60.0902567 110.448609,60.2236072 109.927781,60.2236072 C108.863569,60.2236072 107.828064,59.6696897 107.258023,58.6808443" id="Fill-20"></path>
                <path d="M127.309502,69.4625412 L127.309502,45.3240464 C127.309502,43.6233144 128.68334,42.2467268 130.38526,42.2467268 C132.085128,42.2467268 133.461017,43.6233144 133.461017,45.3240464 L133.461017,69.4625412 C133.461017,71.1591701 132.085128,72.5378093 130.38526,72.5378093 C128.68334,72.5378093 127.309502,71.1591701 127.309502,69.4625412" id="Fill-22"></path>
                <path d="M95.4495747,39.9344289 L89.0622515,33.950068 C87.825797,32.7868412 87.7622313,30.8378722 88.9248677,29.5987381 C90.0854535,28.3596041 92.0313828,28.2980577 93.2698879,29.4571814 L99.6551606,35.4435938 C100.897767,36.6068206 100.961332,38.5537381 99.798696,39.7928722 C99.193797,40.4391093 98.3735949,40.7673567 97.5533929,40.7673567 C96.7988071,40.7673567 96.0442212,40.4903979 95.4495747,39.9344289" id="Fill-24"></path>
                <path d="M157.81384,100.144443 L112.608406,56.5695979 C111.382204,55.3940619 111.349396,53.4430412 112.524335,52.2203196 C113.705426,50.9934948 115.651356,50.9606701 116.877558,52.1362062 L162.082992,95.7151546 C163.303042,96.8906907 163.342002,98.8417113 162.160911,100.064433 C161.556012,100.692206 160.752214,101.006093 159.946366,101.006093 C159.177426,101.006093 158.410537,100.720928 157.81384,100.144443" id="Fill-26"></path>
                <path d="M110.038508,91.5006629 L64.8084677,47.9217144 C63.5863667,46.7441268 63.5474071,44.7992608 64.724397,43.5724361 C65.9013869,42.3497144 67.8493667,42.3107351 69.0714677,43.4924258 L114.303559,87.0672711 C115.52566,88.2448588 115.562569,90.1938278 114.385579,91.4165495 C113.78273,92.0443227 112.976882,92.3602608 112.168983,92.3602608 C111.402094,92.3582093 110.635205,92.0750959 110.038508,91.5006629" id="Fill-28"></path>
                <path d="M133.580152,114.146658 L124.028899,104.949575 C122.804747,103.774039 122.767838,101.823019 123.944828,100.598245 C125.121818,99.3775753 127.069798,99.3406474 128.293949,100.518235 L137.847253,109.711214 C139.071404,110.890854 139.108313,112.837771 137.931323,114.062544 C137.326424,114.692369 136.520576,115.006256 135.712677,115.006256 C134.945788,115.006256 134.176848,114.721091 133.580152,114.146658" id="Fill-30"></path>
                <path d="M49.9439465,81.9960536 C47.5674111,79.7188371 46.1525626,76.8733423 46.1443606,73.9170639 C46.1013,70.8500021 47.8503808,67.8547443 50.7292899,66.227868 C52.6690677,65.120033 54.8549061,64.6625381 57.0345929,64.6584351 C61.135603,64.6789505 65.369896,66.2442804 68.5584313,69.276466 L66.4320576,71.4941876 L64.3015828,73.7139608 C62.4335727,71.8901361 59.4993,70.7966619 57.0345929,70.8110227 C55.7284212,70.8110227 54.5924414,71.1023423 53.8091485,71.5577856 C52.6239566,72.3024969 52.3368859,72.9733526 52.2938253,73.9170639 C52.2917747,74.8300021 52.7654414,76.1758165 54.204896,77.5565072 C56.064704,79.3782804 58.9866737,80.4799608 61.4431788,80.4594454 C62.7575525,80.4635485 63.8935323,80.1640227 64.7137343,79.6860124 C65.8702192,78.963868 66.1531889,78.3073732 66.194199,77.3575072 C66.2044515,76.4384144 65.7205323,75.0843938 64.3015828,73.7139608 L66.4320576,71.4941876 L68.5584313,69.276466 C70.9349667,71.5577856 72.3416131,74.405332 72.3457141,77.3575072 C72.3908253,80.4184144 70.6437949,83.4198268 67.7976939,85.0097753 C65.8415121,86.1422289 63.6351687,86.6099814 61.4431788,86.6140845 C57.3339667,86.5935691 53.1140273,85.0159299 49.9439465,81.9960536" id="Fill-32"></path>
                <path d="M50.1252111,71.1173186 L40.5760091,61.9202361 C39.3498071,60.7426485 39.312898,58.7936794 40.4919384,57.5689062 C41.6689283,56.3461845 43.6148576,56.3092567 44.8410596,57.4868443 L54.3923121,66.6839268 C55.6144131,67.8615144 55.6513222,69.8063804 54.4743323,71.0332052 C53.8714838,71.6609784 53.0656354,71.9769165 52.2597869,71.9769165 C51.492898,71.9769165 50.7239586,71.6917515 50.1252111,71.1173186" id="Fill-34"></path>
                <path d="M109.345642,128.149898 L64.1176525,84.5688979 C62.8914505,83.3872072 62.8586424,81.4382381 64.0335818,80.2155165 C65.2146727,78.9927948 67.1585515,78.955867 68.3847535,80.1355062 L113.614794,123.716506 C114.836895,124.898197 114.873804,126.843063 113.692713,128.069888 C113.091915,128.697661 112.288117,129.011547 111.482269,129.011547 C110.713329,129.011547 109.942339,128.724331 109.345642,128.149898" id="Fill-36"></path>
                <path d="M197.439235,99.9550856 L137.470165,42.2061062 C136.250114,41.026467 136.213205,39.0795495 137.388144,37.8547763 C138.567185,36.6300031 140.517215,36.5951268 141.737266,37.7706629 L201.704286,95.5196423 C202.924336,96.6992814 202.963296,98.646199 201.788357,99.8709722 C201.185508,100.500797 200.377609,100.814684 199.56971,100.814684 C198.802821,100.814684 198.033882,100.529519 197.439235,99.9550856" id="Fill-38"></path>
                <path d="M120.149754,25.5214948 L99.1915414,5.34658763 C97.9632889,4.16694845 97.9263798,2.22208247 99.1033697,0.997309278 C100.28036,-0.227463918 102.23039,-0.268494845 103.452491,0.913195876 L124.412754,21.084 C125.634855,22.2677423 125.671764,24.2146598 124.496824,25.4373814 C123.891925,26.0651546 123.086077,26.3810928 122.280228,26.3810928 C121.513339,26.3810928 120.746451,26.0959278 120.149754,25.5214948" id="Fill-40"></path>
            </g>
        </g>
    </g>
</svg>